<?xml version="1.0" encoding="UTF-8"?>
<!DOCTYPE svg PUBLIC "-//W3C//DTD SVG 1.1//EN" "http://www.w3.org/Graphics/SVG/1.1/DTD/svg11.dtd">
<!-- Creator: CorelDRAW -->
<svg xmlns="http://www.w3.org/2000/svg" xml:space="preserve" width="17.2441in" height="11.6929in" version="1.1" style="shape-rendering:geometricPrecision; text-rendering:geometricPrecision; image-rendering:optimizeQuality; fill-rule:evenodd; clip-rule:evenodd"
viewBox="0 0 17244.09 11692.91"
 xmlns:xlink="http://www.w3.org/1999/xlink"
 xmlns:xodm="http://www.corel.com/coreldraw/odm/2003">
 <defs>
  <style type="text/css">
   <![CDATA[
    .fil3 {fill:#2B244A}
    .fil2 {fill:#1B4E9B;fill-rule:nonzero}
    .fil1 {fill:url(#id0);fill-rule:nonzero}
    .fil0 {fill:url(#id1);fill-rule:nonzero}
   ]]>
  </style>
  <linearGradient id="id0" gradientUnits="userSpaceOnUse" x1="787.26" y1="5270.68" x2="2767.62" y2="5270.68">
   <stop offset="0" style="stop-opacity:1; stop-color:#00A0E3"/>
   <stop offset="0.560784" style="stop-opacity:1; stop-color:#00578B"/>
   <stop offset="0.819608" style="stop-opacity:1; stop-color:#2B244A"/>
   <stop offset="1" style="stop-opacity:1; stop-color:#2B244A"/>
  </linearGradient>
  <radialGradient id="id1" gradientUnits="userSpaceOnUse" gradientTransform="matrix(2.05384 -1.96264 1.96267 2.05387 -13144 -5061)" cx="789.9" cy="6273.02" r="119.48" fx="789.9" fy="6273.02">
   <stop offset="0" style="stop-opacity:1; stop-color:#0068B1"/>
   <stop offset="0.439216" style="stop-opacity:1; stop-color:#4F9BD0"/>
   <stop offset="1" style="stop-opacity:1; stop-color:#9ECDEF"/>
  </radialGradient>
 </defs>
 <g id="Слой_x0020_1">
  <metadata id="CorelCorpID_0Corel-Layer"/>
  <g id="_95827424">
   <g>
    <path class="fil0" d="M790.59 4974.88l-0.69 0 0 1285.29 1286.89 0c-0.49,-709.93 -576.17,-1285.29 -1286.2,-1285.29z"/>
    <path class="fil1" d="M787.52 4281.18c0,0 -0.24,197.17 0,197.17 960.13,0 1783.6,822.67 1784.24,1781.82l195.84 0 0 -1978.99 -1980.09 0z"/>
   </g>
   <path class="fil2" d="M812.6 6851.66l0 -110.9 85.06 0c26.25,0 39.9,21.69 39.9,57.72 0,31.14 -12.94,53.18 -41.65,53.18l-83.3 0zm0 111.94l0 -89.56 85.4 0c50.41,0 67.56,-37.08 67.56,-75.22 0,-41.98 -15.05,-79.06 -69.3,-79.06l-108.85 0 0 243.83 25.2 0zm465.78 4.9c-75.95,0 -110.6,-27.29 -110.6,-128.04 0,-99.35 35,-126.64 110.6,-126.64 75.95,0 110.95,27.29 110.95,126.64 0,100.75 -34.65,128.04 -110.95,128.04zm0 -233.34c-61.95,0 -83.3,16.44 -83.3,106 0,85.01 21.35,105.3 83.3,105.3 62.65,0 84.35,-20.29 84.35,-105.3 0,-89.56 -21.7,-106 -84.35,-106zm321.23 104.25c0,99.35 36.05,129.09 111.65,129.09 21.7,0 49.35,-3.85 68.25,-9.8l-8.05 -22.39c-14.7,5.6 -40.95,9.09 -59.85,9.09 -61.6,0 -84.7,-16.79 -84.7,-106 0,-89.56 23.1,-102.85 84.7,-102.85 18.91,0 45.15,3.5 59.85,9.44l8.05 -22.74c-18.9,-5.59 -46.55,-9.44 -68.25,-9.44 -75.6,0 -111.65,25.89 -111.65,125.59zm376.88 0c0,99.35 36.05,129.09 111.65,129.09 21.7,0 49.35,-3.85 68.25,-9.8l-8.05 -22.39c-14.7,5.6 -40.95,9.09 -59.85,9.09 -61.6,0 -84.7,-16.79 -84.7,-106 0,-89.56 23.1,-102.85 84.7,-102.85 18.91,0 45.15,3.5 59.85,9.44l8.05 -22.74c-18.9,-5.59 -46.55,-9.44 -68.25,-9.44 -75.6,0 -111.65,25.89 -111.65,125.59zm415.38 97.6c46.9,-72.42 91,-145.88 129.5,-217.24l30.1 0 0 243.83 -24.85 0 0 -207.45c-38.5,69.61 -82.25,143.08 -125.65,207.45l-34.3 0 0 -243.83 25.2 0 0 217.24zm421.69 0c46.9,-72.42 91,-145.88 129.5,-217.24l30.1 0 0 243.83 -24.85 0 0 -207.45c-38.5,69.61 -82.25,143.08 -125.65,207.45l-34.3 0 0 -243.83 25.2 0 0 217.24zm22.4 -278.11c0,30.43 15.75,44.08 46.2,44.08 31.15,0 46.55,-13.65 46.55,-44.08l-18.2 0c0,19.59 -9.8,24.14 -28,24.14 -18.55,0 -27.65,-4.55 -27.65,-24.14l-18.9 0zm360.78 180.51c0,99.35 36.05,129.09 111.65,129.09 21.7,0 49.35,-3.85 68.25,-9.8l-8.05 -22.39c-14.7,5.6 -40.95,9.09 -59.85,9.09 -61.6,0 -84.7,-16.79 -84.7,-106 0,-89.56 23.1,-102.85 84.7,-102.85 18.91,0 45.15,3.5 59.85,9.44l8.05 -22.74c-18.9,-5.59 -46.55,-9.44 -68.25,-9.44 -75.6,0 -111.65,25.89 -111.65,125.59zm538.59 124.19c-43.75,-100.4 -70,-116.49 -123.21,-119.99l0 119.99 -25.2 0 0 -243.83 25.2 0 0 118.59c22.75,-16.79 70.01,-62.27 115.51,-118.59l33.25 0c-53.9,62.97 -93.1,99.7 -108.15,109.85 34.65,9.09 59.5,19.59 112.7,133.98l-30.1 0zm258.93 -26.59c46.9,-72.42 91,-145.88 129.5,-217.24l30.1 0 0 243.83 -24.85 0 0 -207.45c-38.5,69.61 -82.25,143.08 -125.65,207.45l-34.3 0 0 -243.83 25.2 0 0 217.24zm563.44 -217.24l0 20.99 -141.76 0 0 81.86 100.46 0 0 20.99 -100.46 0 0 99 141.76 0 0 20.99 -166.95 0 0 -243.83 166.95 0zm2197.02 243.83c-43.75,-100.4 -70,-116.49 -123.2,-119.99l0 119.99 -25.2 0 0 -243.83 25.2 0 0 118.59c22.75,-16.79 70,-62.27 115.5,-118.59l33.25 0c-53.9,62.97 -93.1,99.7 -108.15,109.85 34.65,9.09 59.5,19.59 112.7,133.98l-30.1 0zm331.03 4.9c-75.95,0 -110.61,-27.29 -110.61,-128.04 0,-99.35 35,-126.64 110.61,-126.64 75.95,0 110.95,27.29 110.95,126.64 0,100.75 -34.65,128.04 -110.95,128.04zm0 -233.34c-61.95,0 -83.3,16.44 -83.3,106 0,85.01 21.35,105.3 83.3,105.3 62.65,0 84.35,-20.29 84.35,-105.3 0,-89.56 -21.7,-106 -84.35,-106zm321.22 104.25c0,99.35 36.05,129.09 111.65,129.09 21.7,0 49.35,-3.85 68.25,-9.8l-8.05 -22.39c-14.7,5.6 -40.95,9.09 -59.85,9.09 -61.6,0 -84.7,-16.79 -84.7,-106 0,-89.56 23.1,-102.85 84.7,-102.85 18.91,0 45.15,3.5 59.85,9.44l8.05 -22.74c-18.9,-5.59 -46.55,-9.44 -68.25,-9.44 -75.6,0 -111.65,25.89 -111.65,125.59zm507.79 63.32c-23.8,-60.87 -50.75,-122.09 -79.8,-182.96l-37.8 0 0 243.83 24.5 0 0 -215.85c28.7,62.97 56,126.29 82.25,189.26l18.55 0c25.91,-61.57 53.55,-124.89 83.3,-189.26l0 215.85 25.2 0 0 -243.83 -35.35 0c-29.75,60.52 -57.4,121.74 -80.85,182.96zm377.93 34.28c46.9,-72.42 91,-145.88 129.5,-217.24l30.1 0 0 243.83 -24.85 0 0 -207.45c-38.5,69.61 -82.25,143.08 -125.65,207.45l-34.3 0 0 -243.83 25.2 0 0 217.24zm450.74 -44.43c26.6,0 51.45,-7.35 60.2,-14.34l0 85.36 25.2 0 0 -243.83 -25.2 0 0 124.54c0,16.09 -28.7,24.84 -59.5,24.84 -44.8,0 -65.1,-9.1 -65.1,-62.97l0 -86.41 -25.2 0 0 90.95c0,69.62 33.25,81.86 89.6,81.86zm489.23 -172.81l0 20.99 -141.75 0 0 81.86 100.45 0 0 20.99 -100.45 0 0 99 141.75 0 0 20.99 -166.95 0 0 -243.83 166.95 0zm199.43 119.64c0,99.35 36.05,129.09 111.65,129.09 21.7,0 49.35,-3.85 68.25,-9.8l-8.05 -22.39c-14.7,5.6 -40.95,9.09 -59.85,9.09 -61.6,0 -84.7,-16.79 -84.7,-106 0,-89.56 23.1,-102.85 84.7,-102.85 18.91,0 45.15,3.5 59.85,9.44l8.05 -22.74c-18.9,-5.59 -46.55,-9.44 -68.25,-9.44 -75.6,0 -111.65,25.89 -111.65,125.59zm538.59 124.19c-43.75,-100.4 -70,-116.49 -123.21,-119.99l0 119.99 -25.2 0 0 -243.83 25.2 0 0 118.59c22.75,-16.79 70.01,-62.27 115.51,-118.59l33.25 0c-53.9,62.97 -93.1,99.7 -108.15,109.85 34.65,9.09 59.5,19.59 112.7,133.98l-30.1 0zm258.93 -26.59c46.9,-72.42 91,-145.88 129.5,-217.24l30.1 0 0 243.83 -24.85 0 0 -207.45c-38.5,69.61 -82.25,143.08 -125.65,207.45l-34.3 0 0 -243.83 25.2 0 0 217.24zm563.44 -217.24l0 20.99 -141.75 0 0 81.86 100.45 0 0 20.99 -100.45 0 0 99 141.75 0 0 20.99 -166.95 0 0 -243.83 166.95 0zm3236.56 119.64c0,99.35 36.05,129.09 111.65,129.09 21.7,0 49.35,-3.85 68.25,-9.8l-8.05 -22.39c-14.7,5.6 -40.95,9.09 -59.85,9.09 -61.6,0 -84.7,-16.79 -84.7,-106 0,-89.56 23.1,-102.85 84.7,-102.85 18.91,0 45.15,3.5 59.85,9.44l8.05 -22.74c-18.9,-5.59 -46.55,-9.44 -68.25,-9.44 -75.6,0 -111.65,25.89 -111.65,125.59zm415.38 97.6c46.91,-72.42 91,-145.88 129.5,-217.24l30.1 0 0 243.83 -24.85 0 0 -207.45c-38.5,69.61 -82.25,143.08 -125.65,207.45l-34.3 0 0 -243.83 25.2 0 0 217.24zm383.19 -97.6c0,99.35 36.05,129.09 111.65,129.09 21.7,0 49.35,-3.85 68.25,-9.8l-8.05 -22.39c-14.7,5.6 -40.95,9.09 -59.85,9.09 -61.6,0 -84.7,-16.79 -84.7,-106 0,-89.56 23.1,-102.85 84.7,-102.85 18.9,0 45.15,3.5 59.85,9.44l8.05 -22.74c-18.9,-5.59 -46.55,-9.44 -68.25,-9.44 -75.6,0 -111.65,25.89 -111.65,125.59zm467.19 -98.65l84.35 0 0 -20.99 -194.61 0 0 20.99 84.7 0 0 222.84 25.55 0 0 -222.84zm454.93 -20.99l0 20.99 -141.76 0 0 81.86 100.45 0 0 20.99 -100.45 0 0 99 141.76 0 0 20.99 -166.95 0 0 -243.83 166.95 0zm330.33 182.96c-23.8,-60.87 -50.75,-122.09 -79.8,-182.96l-37.8 0 0 243.83 24.5 0 0 -215.85c28.7,62.97 56,126.29 82.25,189.26l18.55 0c25.91,-61.57 53.55,-124.89 83.3,-189.26l0 215.85 25.2 0 0 -243.83 -35.35 0c-29.75,60.52 -57.4,121.74 -80.85,182.96zm473.48 39.88c25.9,0 34.3,-19.94 34.3,-48.28 0,-29.39 -10.5,-51.07 -35.7,-51.07l-94.16 0 0 99.35 95.56 0zm-95.56 -222.84l0 102.85 92.06 0c51.8,0 64.75,29.73 64.75,72.06 0,45.48 -21.7,68.92 -60.9,68.92l-121.1 0 0 -243.83 25.2 0zm207.91 0l0 243.83 -25.2 0 0 -243.83 25.2 0z"/>
   <path class="fil3" d="M3790.63 5382.05l826.76 0 0 862.21 360.66 0 0 -1944.86 -360.66 0 0 742.23 -826.76 0 0 -742.23 -366.23 0 0 1944.86 366.23 0 0 -862.21zm1798.41 -764.56l826.76 0 0 1626.77 360.66 0 0 -1944.86 -1553.65 0 0 1944.86 366.23 0 0 -1626.77zm2256.17 -365.54c-613.13,0 -921.07,212.07 -921.07,1001.73 0,803.62 305.17,1029.63 921.07,1029.63 613.13,0 918.31,-226.01 918.31,-1029.63 0,-789.66 -305.17,-1001.73 -918.31,-1001.73zm0 1699.31c-424.48,0 -529.9,-106.04 -529.9,-692 0,-588.76 105.43,-675.27 529.9,-675.27 424.48,0 529.9,86.51 529.9,675.27 0,585.96 -105.42,692 -529.9,692zm2394.53 -1699.31c-613.13,0 -921.07,212.07 -921.07,1001.73 0,803.62 305.17,1029.63 921.07,1029.63 613.13,0 918.31,-226.01 918.31,-1029.63 0,-789.66 -305.17,-1001.73 -918.31,-1001.73zm0 1699.31c-424.48,0 -529.88,-106.04 -529.88,-692 0,-588.76 105.41,-675.27 529.88,-675.27 424.48,0 529.91,86.51 529.91,675.27 0,585.96 -105.43,692 -529.91,692zm1360.04 -828.72c72.13,-27.92 180.32,-41.86 274.67,-41.86 244.16,0 324.61,69.76 324.61,460.4 0,351.6 -80.44,449.26 -321.84,449.26 -152.57,0 -277.43,-53.02 -277.43,-136.74l0 -731.06zm-344.01 1657.46l344.01 0 0 -577.61c77.68,39.08 177.56,80.92 338.46,80.92 377.33,0 613.13,-173 613.13,-750.6 0,-580.37 -210.83,-750.59 -676.93,-750.59 -205.3,0 -466.08,41.84 -618.68,106.02l0 1891.86zm2306.09 -535.75l344.02 0 0 -1420.29 -344.02 0c-169.22,304.15 -382.85,661.31 -574.29,904.07l0 -904.07 -344.01 0 0 1420.29 344.01 0c196.97,-256.72 405.07,-560.86 574.29,-867.8l0 867.8zm1104.81 39.06c455.01,0 676.95,-173 676.95,-756.17 0,-580.39 -224.73,-745.02 -676.95,-745.02 -446.67,0 -671.38,164.62 -671.38,745.02 0,583.18 221.94,756.17 671.38,756.17zm0 -1219.37c246.93,0 321.84,61.39 321.84,468.77 0,393.44 -74.91,468.79 -321.84,468.79 -241.37,0 -316.27,-75.35 -316.27,-468.79 0,-407.38 74.9,-468.77 316.27,-468.77zm1665.24 577.61l0 602.7 344.01 0 0 -1420.29 -344.01 0 0 521.81 -554.88 0 0 -521.81 -344.01 0 0 1420.29 344.01 0 0 -602.7 554.88 0z"/>
  </g>
 </g>
</svg>
